<svg class="svg-asset color-accent block margin-top-lg margin-x-auto" width="200" height="14" aria-hidden="true" role="img" focusable="false" xmlns="http://www.w3.org/2000/svg" viewBox="0 0 200 14"><g stroke="none" stroke-width="1" fill="none" fill-rule="evenodd"><path fill="currentColor" fill-rule="nonzero" d="M181.816402,0 C185.746044,0 188.0037,1.15743161 191.006977,4.1918189 L191.545199,4.74692943 C191.636357,4.84274399 191.728282,4.94021884 191.821037,5.03937227 L192.662145,5.95424358 L193.186378,6.51498677 C193.271256,6.60423607 193.354947,6.69140766 193.437538,6.77654088 L193.920596,7.26319455 C195.962778,9.26876017 197.380865,9.94958828 199.72529,9.99726887 L200,10 L200,14 C195.839202,14 193.55288,12.702395 190.271203,9.25307057 L189.714548,8.65811339 L189.154256,8.04575642 L188.630024,7.48501323 C186.083663,4.80753418 184.606373,4 181.816402,4 C179.305299,4 177.857504,4.65412702 175.736729,6.73682584 L175.253662,7.22347816 C175.17107,7.30861106 175.087377,7.39578229 175.002497,7.48503119 L174.478258,8.04577139 L173.917846,8.65824903 C173.728897,8.86330048 173.543511,9.06156466 173.361198,9.25318801 L172.822982,9.80828202 C169.819735,12.8425803 167.562065,14 163.632483,14 C159.471999,14 157.185868,12.7023677 153.904498,9.25300291 L153.347896,8.65803888 L153.061761,8.34533968 C152.690606,7.9370663 152.342689,7.56392492 152.012365,7.22339718 L151.529367,6.73675103 C149.408902,4.65408125 147.961406,4 145.45081,4 C142.568315,4 141.087186,4.86223316 138.379929,7.75886381 L137.55367,8.65804873 L136.997063,9.25300727 L136.458884,9.80811994 C133.455843,12.8425214 131.19827,14 127.268817,14 C123.224004,14 120.95082,12.7734485 117.8123,9.53546598 L117.265299,8.96053299 C117.172556,8.86137804 117.078983,8.76054449 116.984519,8.65801404 L116.698393,8.34531367 C116.327253,7.93704215 115.97935,7.56390256 115.649039,7.22337653 L115.166061,6.73673288 C113.045684,4.65407411 111.598256,4 109.087787,4 C106.205244,4 104.724073,4.86228412 102.01692,7.75895049 L101.19059,8.65826052 L100.634036,9.25319272 L100.095909,9.80828121 C97.0931574,12.8425517 94.8357856,14 90.9067564,14 C86.9774701,14 84.7199872,12.842556 81.7170195,9.80822098 L81.1788534,9.25312037 L80.622258,8.65817453 L80.0619061,8.04569751 C77.182761,4.91879852 75.700437,4 72.7247631,4 C70.2142935,4 68.766866,4.65407411 66.6464889,6.73673288 L66.163511,7.22337653 C65.9157778,7.47877105 65.658149,7.7525107 65.3882433,8.04565792 L65.1141572,8.34531367 C64.9215427,8.5571988 64.7327378,8.76222309 64.5472506,8.96053299 L64.0002497,9.53546598 C60.8617294,12.7734485 58.588546,14 54.5437329,14 C50.6144465,14 48.3569636,12.842556 45.353996,9.80822098 L44.8158299,9.25312037 L44.2592345,8.65817453 L43.9731033,8.34548509 C43.7875167,8.14134179 43.6077396,7.94598176 43.4330666,7.75909019 L42.9236535,7.22350608 C40.5286765,4.75459918 39.058444,4 36.3617396,4 C33.8512699,4 32.4038425,4.65407411 30.2834653,6.73673288 L29.8004874,7.22337653 C29.5527542,7.47877105 29.2951255,7.7525107 29.0252198,8.04565792 L28.7511336,8.34531367 C28.5585191,8.5571988 28.3697143,8.76222309 28.184227,8.96053299 L27.6372262,9.53546598 C24.4987058,12.7734485 22.2255224,14 18.1807093,14 C14.1358874,14 11.8626602,12.7734159 8.72419699,9.53544654 L8.17720693,8.96051627 L7.33612192,8.04552386 C7.1561947,7.85009976 6.98172346,7.66330084 6.81200267,7.48481234 L6.31638614,6.97396329 C4.14389327,4.7845002 2.70859013,4.05224241 0.274637087,4.00273096 L0,4 L0,0 C4.27577296,0 6.57178909,1.37072932 10.0031535,5.03936435 L10.8442337,5.95435175 C13.7231482,9.08122155 15.2053344,10 18.1807093,10 C20.7841593,10 22.2443651,9.29657874 24.4974386,7.02594229 L24.9930814,6.51507455 C25.1628113,6.33657945 25.337292,6.14977356 25.5172291,5.95434208 L25.7913153,5.65468633 C25.9839298,5.4428012 26.1727346,5.23777691 26.3582219,5.03946701 L26.9052227,4.46453402 C30.0437431,1.22655145 32.3169265,0 36.3617396,0 C40.5223371,0 42.8085778,1.29765771 46.0899852,4.74699273 L46.646593,5.34195127 L47.2069436,5.95442688 C50.0860097,9.08124167 51.5682538,10 54.5437329,10 C57.1471829,10 58.6073886,9.29657874 60.8604621,7.02594229 L61.3561049,6.51507455 C61.5258348,6.33657945 61.7003155,6.14977356 61.8802527,5.95434208 L62.1543388,5.65468633 C62.3469533,5.4428012 62.5357582,5.23777691 62.7212454,5.03946701 L63.2682463,4.46453402 C66.4067666,1.22655145 68.67995,0 72.7247631,0 C76.6542164,0 78.9117896,1.15747864 81.91483,4.19188006 L82.4530088,4.74699273 L83.0096165,5.34195127 L83.5699671,5.95442688 C86.4490333,9.08124167 87.9312774,10 90.9067564,10 C93.5100024,10 94.9701617,9.29659563 97.2230918,7.02611174 L97.7187022,6.51527881 C97.8035615,6.42603742 97.8896084,6.33471852 97.976931,6.24128276 L98.8032432,5.3419911 L99.3598217,4.74703348 L99.8979739,4.19192088 L100.420652,3.67577476 C103.172251,1.02534426 105.389563,0 109.087787,0 C113.1326,0 115.405783,1.22655145 118.544304,4.46453402 L119.091304,5.03946701 C119.184048,5.13862196 119.277621,5.23945551 119.372085,5.34198596 L119.658211,5.65468633 C120.029351,6.06295785 120.377254,6.43609744 120.707565,6.77662347 L121.190543,7.26326712 C123.31092,9.34592589 124.758347,10 127.268817,10 C130.151501,10 131.632711,9.13772912 134.340044,6.24101957 L135.166312,5.34182547 L135.722907,4.74687963 L136.261073,4.19177902 C139.264041,1.15744404 141.521524,0 145.45081,0 C149.611294,0 151.897425,1.29763228 155.178795,4.74699709 L155.735397,5.34196112 L156.021532,5.65466032 C156.392687,6.0629337 156.740604,6.43607508 157.070928,6.77660282 L157.553926,7.26324897 C159.674391,9.34591875 161.121887,10 163.632483,10 C166.236419,10 167.696912,9.2965526 169.95033,7.02593979 L170.446048,6.51507791 C170.615803,6.33658503 170.79031,6.14978165 170.970273,5.95435299 L171.530683,5.34187677 L172.087344,4.74692507 C175.369059,1.29763042 177.65549,0 181.816402,0 Z"></path></g></svg>