<svg class="svg-asset color-secondary block margin-top-lg margin-x-auto position-absolute dots z-index-1" width="100" height="100" aria-hidden="true" role="img" focusable="false" xmlns="http://www.w3.org/2000/svg" viewBox="0 0 162 162"><g fill="currentColor" stroke="none" stroke-width="1" fill-rule="evenodd"><path d="M2.98353133,156.032937 C4.63129018,156.032937 5.96706265,157.36871 5.96706265,159.016469 C5.96706265,160.664228 4.63129018,162 2.98353133,162 C1.33577247,162 0,160.664228 0,159.016469 C0,157.36871 1.33577247,156.032937 2.98353133,156.032937 Z M28.9890877,156.032937 C30.6368465,156.032937 31.972619,157.36871 31.972619,159.016469 C31.972619,160.664228 30.6368465,162 28.9890877,162 C27.3413288,162 26.0055564,160.664228 26.0055564,159.016469 C26.0055564,157.36871 27.3413288,156.032937 28.9890877,156.032937 Z M54.9945438,156.032937 C56.6423027,156.032937 57.9780752,157.36871 57.9780752,159.016469 C57.9780752,160.664228 56.6423027,162 54.9945438,162 C53.346785,162 52.0110125,160.664228 52.0110125,159.016469 C52.0110125,157.36871 53.346785,156.032937 54.9945438,156.032937 Z M81.0001002,156.032937 C82.647859,156.032937 83.9836315,157.36871 83.9836315,159.016469 C83.9836315,160.664228 82.647859,162 81.0001002,162 C79.3523413,162 78.0165689,160.664228 78.0165689,159.016469 C78.0165689,157.36871 79.3523413,156.032937 81.0001002,156.032937 Z M107.005556,156.032937 C108.653315,156.032937 109.989088,157.36871 109.989088,159.016469 C109.989088,160.664228 108.653315,162 107.005556,162 C105.357798,162 104.022025,160.664228 104.022025,159.016469 C104.022025,157.36871 105.357798,156.032937 107.005556,156.032937 Z M133.011513,156.032937 C134.659272,156.032937 135.995045,157.36871 135.995045,159.016469 C135.995045,160.664228 134.659272,162 133.011513,162 C131.363755,162 130.027982,160.664228 130.027982,159.016469 C130.027982,157.36871 131.363755,156.032937 133.011513,156.032937 Z M159.016469,156.032937 C160.664228,156.032937 162,157.36871 162,159.016469 C162,160.664228 160.664228,162 159.016469,162 C157.36871,162 156.032937,160.664228 156.032937,159.016469 C156.032937,157.36871 157.36871,156.032937 159.016469,156.032937 Z M81.0001002,130.027982 C82.647859,130.027982 83.9836315,131.363755 83.9836315,133.011513 C83.9836315,134.659272 82.647859,135.995045 81.0001002,135.995045 C79.3523413,135.995045 78.0165689,134.659272 78.0165689,133.011513 C78.0165689,131.363755 79.3523413,130.027982 81.0001002,130.027982 Z M107.005556,130.027982 C108.653315,130.027982 109.989088,131.363755 109.989088,133.011513 C109.989088,134.659272 108.653315,135.995045 107.005556,135.995045 C105.357798,135.995045 104.022025,134.659272 104.022025,133.011513 C104.022025,131.363755 105.357798,130.027982 107.005556,130.027982 Z M2.98353133,130.027982 C4.63129018,130.027982 5.96706265,131.363755 5.96706265,133.011513 C5.96706265,134.659272 4.63129018,135.995045 2.98353133,135.995045 C1.33577247,135.995045 0,134.659272 0,133.011513 C0,131.363755 1.33577247,130.027982 2.98353133,130.027982 Z M133.011513,130.027982 C134.659272,130.027982 135.995045,131.363755 135.995045,133.011513 C135.995045,134.659272 134.659272,135.995045 133.011513,135.995045 C131.363755,135.995045 130.027982,134.659272 130.027982,133.011513 C130.027982,131.363755 131.363755,130.027982 133.011513,130.027982 Z M28.9890877,130.027982 C30.6368465,130.027982 31.972619,131.363755 31.972619,133.011513 C31.972619,134.659272 30.6368465,135.995045 28.9890877,135.995045 C27.3413288,135.995045 26.0055564,134.659272 26.0055564,133.011513 C26.0055564,131.363755 27.3413288,130.027982 28.9890877,130.027982 Z M159.016469,130.027982 C160.664228,130.027982 162,131.363755 162,133.011513 C162,134.659272 160.664228,135.995045 159.016469,135.995045 C157.36871,135.995045 156.032937,134.659272 156.032937,133.011513 C156.032937,131.363755 157.36871,130.027982 159.016469,130.027982 Z M54.9945438,130.027982 C56.6423027,130.027982 57.9780752,131.363755 57.9780752,133.011513 C57.9780752,134.659272 56.6423027,135.995045 54.9945438,135.995045 C53.346785,135.995045 52.0110125,134.659272 52.0110125,133.011513 C52.0110125,131.363755 53.346785,130.027982 54.9945438,130.027982 Z M2.98353133,104.022025 C4.63129018,104.022025 5.96706265,105.357798 5.96706265,107.005556 C5.96706265,108.653315 4.63129018,109.989088 2.98353133,109.989088 C1.33577247,109.989088 0,108.653315 0,107.005556 C0,105.357798 1.33577247,104.022025 2.98353133,104.022025 Z M28.9890877,104.022025 C30.6368465,104.022025 31.972619,105.357798 31.972619,107.005556 C31.972619,108.653315 30.6368465,109.989088 28.9890877,109.989088 C27.3413288,109.989088 26.0055564,108.653315 26.0055564,107.005556 C26.0055564,105.357798 27.3413288,104.022025 28.9890877,104.022025 Z M54.9945438,104.022025 C56.6423027,104.022025 57.9780752,105.357798 57.9780752,107.005556 C57.9780752,108.653315 56.6423027,109.989088 54.9945438,109.989088 C53.346785,109.989088 52.0110125,108.653315 52.0110125,107.005556 C52.0110125,105.357798 53.346785,104.022025 54.9945438,104.022025 Z M81.0001002,104.022025 C82.647859,104.022025 83.9836315,105.357798 83.9836315,107.005556 C83.9836315,108.653315 82.647859,109.989088 81.0001002,109.989088 C79.3523413,109.989088 78.0165689,108.653315 78.0165689,107.005556 C78.0165689,105.357798 79.3523413,104.022025 81.0001002,104.022025 Z M107.005556,104.022025 C108.653315,104.022025 109.989088,105.357798 109.989088,107.005556 C109.989088,108.653315 108.653315,109.989088 107.005556,109.989088 C105.357798,109.989088 104.022025,108.653315 104.022025,107.005556 C104.022025,105.357798 105.357798,104.022025 107.005556,104.022025 Z M133.011513,104.022025 C134.659272,104.022025 135.995045,105.357798 135.995045,107.005556 C135.995045,108.653315 134.659272,109.989088 133.011513,109.989088 C131.363755,109.989088 130.027982,108.653315 130.027982,107.005556 C130.027982,105.357798 131.363755,104.022025 133.011513,104.022025 Z M159.016469,104.022025 C160.664228,104.022025 162,105.357798 162,107.005556 C162,108.653315 160.664228,109.989088 159.016469,109.989088 C157.36871,109.989088 156.032937,108.653315 156.032937,107.005556 C156.032937,105.357798 157.36871,104.022025 159.016469,104.022025 Z M28.9890877,78.0166691 C30.6368465,78.0166691 31.972619,79.3524415 31.972619,81.0002004 C31.972619,82.6479592 30.6368465,83.9837317 28.9890877,83.9837317 C27.3413288,83.9837317 26.0055564,82.6479592 26.0055564,81.0002004 C26.0055564,79.3524415 27.3413288,78.0166691 28.9890877,78.0166691 Z M133.011513,78.0166691 C134.659272,78.0166691 135.995045,79.3524415 135.995045,81.0002004 C135.995045,82.6479592 134.659272,83.9837317 133.011513,83.9837317 C131.363755,83.9837317 130.027982,82.6479592 130.027982,81.0002004 C130.027982,79.3524415 131.363755,78.0166691 133.011513,78.0166691 Z M81.0001002,78.0166691 C82.647859,78.0166691 83.9836315,79.3524415 83.9836315,81.0002004 C83.9836315,82.6479592 82.647859,83.9837317 81.0001002,83.9837317 C79.3523413,83.9837317 78.0165689,82.6479592 78.0165689,81.0002004 C78.0165689,79.3524415 79.3523413,78.0166691 81.0001002,78.0166691 Z M2.98353133,78.0166691 C4.63129018,78.0166691 5.96706265,79.3524415 5.96706265,81.0002004 C5.96706265,82.6479592 4.63129018,83.9837317 2.98353133,83.9837317 C1.33577247,83.9837317 0,82.6479592 0,81.0002004 C0,79.3524415 1.33577247,78.0166691 2.98353133,78.0166691 Z M107.005556,78.0166691 C108.653315,78.0166691 109.989088,79.3524415 109.989088,81.0002004 C109.989088,82.6479592 108.653315,83.9837317 107.005556,83.9837317 C105.357798,83.9837317 104.022025,82.6479592 104.022025,81.0002004 C104.022025,79.3524415 105.357798,78.0166691 107.005556,78.0166691 Z M54.9945438,78.0166691 C56.6423027,78.0166691 57.9780752,79.3524415 57.9780752,81.0002004 C57.9780752,82.6479592 56.6423027,83.9837317 54.9945438,83.9837317 C53.346785,83.9837317 52.0110125,82.6479592 52.0110125,81.0002004 C52.0110125,79.3524415 53.346785,78.0166691 54.9945438,78.0166691 Z M159.016469,78.0166691 C160.664228,78.0166691 162,79.3524415 162,81.0002004 C162,82.6479592 160.664228,83.9837317 159.016469,83.9837317 C157.36871,83.9837317 156.032937,82.6479592 156.032937,81.0002004 C156.032937,79.3524415 157.36871,78.0166691 159.016469,78.0166691 Z M2.98353133,52.0110125 C4.63129018,52.0110125 5.96706265,53.346785 5.96706265,54.9945438 C5.96706265,56.6423027 4.63129018,57.9780752 2.98353133,57.9780752 C1.33577247,57.9780752 0,56.6423027 0,54.9945438 C0,53.346785 1.33577247,52.0110125 2.98353133,52.0110125 Z M28.9890877,52.0110125 C30.6368465,52.0110125 31.972619,53.346785 31.972619,54.9945438 C31.972619,56.6423027 30.6368465,57.9780752 28.9890877,57.9780752 C27.3413288,57.9780752 26.0055564,56.6423027 26.0055564,54.9945438 C26.0055564,53.346785 27.3413288,52.0110125 28.9890877,52.0110125 Z M54.9945438,52.0110125 C56.6423027,52.0110125 57.9780752,53.346785 57.9780752,54.9945438 C57.9780752,56.6423027 56.6423027,57.9780752 54.9945438,57.9780752 C53.346785,57.9780752 52.0110125,56.6423027 52.0110125,54.9945438 C52.0110125,53.346785 53.346785,52.0110125 54.9945438,52.0110125 Z M133.011513,52.0110125 C134.659272,52.0110125 135.995045,53.346785 135.995045,54.9945438 C135.995045,56.6423027 134.659272,57.9780752 133.011513,57.9780752 C131.363755,57.9780752 130.027982,56.6423027 130.027982,54.9945438 C130.027982,53.346785 131.363755,52.0110125 133.011513,52.0110125 Z M81.0001002,52.0110125 C82.647859,52.0110125 83.9836315,53.346785 83.9836315,54.9945438 C83.9836315,56.6423027 82.647859,57.9780752 81.0001002,57.9780752 C79.3523413,57.9780752 78.0165689,56.6423027 78.0165689,54.9945438 C78.0165689,53.346785 79.3523413,52.0110125 81.0001002,52.0110125 Z M159.016469,52.0110125 C160.664228,52.0110125 162,53.346785 162,54.9945438 C162,56.6423027 160.664228,57.9780752 159.016469,57.9780752 C157.36871,57.9780752 156.032937,56.6423027 156.032937,54.9945438 C156.032937,53.346785 157.36871,52.0110125 159.016469,52.0110125 Z M107.005556,52.0110125 C108.653315,52.0110125 109.989088,53.346785 109.989088,54.9945438 C109.989088,56.6423027 108.653315,57.9780752 107.005556,57.9780752 C105.357798,57.9780752 104.022025,56.6423027 104.022025,54.9945438 C104.022025,53.346785 105.357798,52.0110125 107.005556,52.0110125 Z M2.98353133,26.0055564 C4.63129018,26.0055564 5.96706265,27.3413288 5.96706265,28.9890877 C5.96706265,30.6368465 4.63129018,31.972619 2.98353133,31.972619 C1.33577247,31.972619 0,30.6368465 0,28.9890877 C0,27.3413288 1.33577247,26.0055564 2.98353133,26.0055564 Z M28.9890877,26.0055564 C30.6368465,26.0055564 31.972619,27.3413288 31.972619,28.9890877 C31.972619,30.6368465 30.6368465,31.972619 28.9890877,31.972619 C27.3413288,31.972619 26.0055564,30.6368465 26.0055564,28.9890877 C26.0055564,27.3413288 27.3413288,26.0055564 28.9890877,26.0055564 Z M54.9945438,26.0055564 C56.6423027,26.0055564 57.9780752,27.3413288 57.9780752,28.9890877 C57.9780752,30.6368465 56.6423027,31.972619 54.9945438,31.972619 C53.346785,31.972619 52.0110125,30.6368465 52.0110125,28.9890877 C52.0110125,27.3413288 53.346785,26.0055564 54.9945438,26.0055564 Z M81.0001002,26.0055564 C82.647859,26.0055564 83.9836315,27.3413288 83.9836315,28.9890877 C83.9836315,30.6368465 82.647859,31.972619 81.0001002,31.972619 C79.3523413,31.972619 78.0165689,30.6368465 78.0165689,28.9890877 C78.0165689,27.3413288 79.3523413,26.0055564 81.0001002,26.0055564 Z M107.005556,26.0055564 C108.653315,26.0055564 109.989088,27.3413288 109.989088,28.9890877 C109.989088,30.6368465 108.653315,31.972619 107.005556,31.972619 C105.357798,31.972619 104.022025,30.6368465 104.022025,28.9890877 C104.022025,27.3413288 105.357798,26.0055564 107.005556,26.0055564 Z M133.011513,26.0055564 C134.659272,26.0055564 135.995045,27.3413288 135.995045,28.9890877 C135.995045,30.6368465 134.659272,31.972619 133.011513,31.972619 C131.363755,31.972619 130.027982,30.6368465 130.027982,28.9890877 C130.027982,27.3413288 131.363755,26.0055564 133.011513,26.0055564 Z M159.016469,26.0055564 C160.664228,26.0055564 162,27.3413288 162,28.9890877 C162,30.6368465 160.664228,31.972619 159.016469,31.972619 C157.36871,31.972619 156.032937,30.6368465 156.032937,28.9890877 C156.032937,27.3413288 157.36871,26.0055564 159.016469,26.0055564 Z M2.98353133,0 C4.63129018,0 5.96706265,1.33577247 5.96706265,2.98353133 C5.96706265,4.63129018 4.63129018,5.96706265 2.98353133,5.96706265 C1.33577247,5.96706265 0,4.63129018 0,2.98353133 C0,1.33577247 1.33577247,0 2.98353133,0 Z M28.9890877,0 C30.6368465,0 31.972619,1.33577247 31.972619,2.98353133 C31.972619,4.63129018 30.6368465,5.96706265 28.9890877,5.96706265 C27.3413288,5.96706265 26.0055564,4.63129018 26.0055564,2.98353133 C26.0055564,1.33577247 27.3413288,0 28.9890877,0 Z M54.9945438,0 C56.6423027,0 57.9780752,1.33577247 57.9780752,2.98353133 C57.9780752,4.63129018 56.6423027,5.96706265 54.9945438,5.96706265 C53.346785,5.96706265 52.0110125,4.63129018 52.0110125,2.98353133 C52.0110125,1.33577247 53.346785,0 54.9945438,0 Z M81.0001002,0 C82.647859,0 83.9836315,1.33577247 83.9836315,2.98353133 C83.9836315,4.63129018 82.647859,5.96706265 81.0001002,5.96706265 C79.3523413,5.96706265 78.0165689,4.63129018 78.0165689,2.98353133 C78.0165689,1.33577247 79.3523413,0 81.0001002,0 Z M107.005556,0 C108.653315,0 109.989088,1.33577247 109.989088,2.98353133 C109.989088,4.63129018 108.653315,5.96706265 107.005556,5.96706265 C105.357798,5.96706265 104.022025,4.63129018 104.022025,2.98353133 C104.022025,1.33577247 105.357798,0 107.005556,0 Z M133.011513,0 C134.659272,0 135.995045,1.33577247 135.995045,2.98353133 C135.995045,4.63129018 134.659272,5.96706265 133.011513,5.96706265 C131.363755,5.96706265 130.027982,4.63129018 130.027982,2.98353133 C130.027982,1.33577247 131.363755,0 133.011513,0 Z M159.016469,0 C160.664228,0 162,1.33577247 162,2.98353133 C162,4.63129018 160.664228,5.96706265 159.016469,5.96706265 C157.36871,5.96706265 156.032937,4.63129018 156.032937,2.98353133 C156.032937,1.33577247 157.36871,0 159.016469,0 Z"></path></g></svg>