<svg class="svg-asset color-accent" width="60" height="41" aria-hidden="true" role="img" focusable="false" xmlns="http://www.w3.org/2000/svg" viewBox="0 0 80 61"><g stroke="none" stroke-width="1" fill="none" fill-rule="evenodd"><path class="fill-current fill-tertiary" fill-rule="nonzero" d="M17.3221032,-3.55271368e-15 C26.2989773,-3.55271368e-15 33.5922472,7.49966316 34.4767069,16.3301412 C34.4767069,16.3301412 34.8782359,17.4847258 34.9885977,21.9821529 C35.2476739,32.5045991 31.2159468,49.3207564 10.1133656,61.0001581 L10.1133656,61.0001581 L8.37497194,60.1782772 C8.37497194,60.1782772 8.39653334,60.1635465 8.43799456,60.1341819 L8.51490353,60.0791714 C9.94712574,59.0457695 21.9102102,49.957398 22.8401922,34.0677534 C21.1064947,34.6557143 19.2522603,34.9789348 17.3221032,34.9789348 C7.75506747,34.9789348 0,27.1489387 0,17.4894674 C0,7.82999606 7.75506747,-3.55271368e-15 17.3221032,-3.55271368e-15 Z M62.3221032,-3.55271368e-15 C71.2989773,-3.55271368e-15 78.5922472,7.49966316 79.4767069,16.3301412 C79.4767069,16.3301412 79.8782359,17.4847258 79.9885977,21.9821529 C80.2476739,32.5045991 76.2159468,49.3207564 55.1133656,61.0001581 L55.1133656,61.0001581 L53.3749719,60.1782772 C53.3749719,60.1782772 53.3965333,60.1635465 53.4379946,60.1341819 L53.5149035,60.0791714 C54.9471257,59.0457695 66.9102102,49.957398 67.8401922,34.0677534 C66.1064947,34.6557143 64.2522603,34.9789348 62.3221032,34.9789348 C52.7550675,34.9789348 45,27.1489387 45,17.4894674 C45,7.82999606 52.7550675,-3.55271368e-15 62.3221032,-3.55271368e-15 Z"></path></g></svg>